<?xml version="1.0" encoding="UTF-8"?>
<svg width="32" height="32" version="1.2" viewBox="0 0 64 64" xmlns="http://www.w3.org/2000/svg" xmlns:cc="http://creativecommons.org/ns#">
<g transform="matrix(3.7743 0 0 3.7743 -28.388 -28.388)" fill-rule="evenodd" >
<g transform="matrix(.031279 0 0 .031279 6.9291 6.9291)" fill="#2eb7ff" fill-opacity="1">
<path d="m542.94 486.24c0 31.312-25.383 56.693-56.693 56.693h-392.49c-31.311 0-56.693-25.382-56.693-56.693v-392.48c0-31.311 25.382-56.693 56.693-56.693h392.48c31.311 0 56.693 25.382 56.693 56.693v392.48h1e-3" fill-rule="nonzero"/>
</g>
<g transform="matrix(.031279 0 0 .031279 6.9291 6.9291)" fill="none" stroke="#fff" stroke-opacity="1" stroke-width="36.25">
<path d="m542.94 486.24c0 31.312-25.383 56.693-56.693 56.693h-392.49c-31.311 0-56.693-25.382-56.693-56.693v-392.48c0-31.311 25.382-56.693 56.693-56.693h392.48c31.311 0 56.693 25.382 56.693 56.693v392.48h1e-3" fill-rule="nonzero"/>
</g>
<g transform="matrix(.022154 0 0 .022154 9.5753 9.5753)" fill="#fff" fill-opacity="1">
<circle cx="478.05" cy="87.691" r="45.353"/>
</g>
<g transform="matrix(.022154 0 0 .022154 9.5753 9.5753)" fill="#fff" fill-opacity="1">
<path d="m475.24 502.4v9.279c0 9.279-8.888 8.365-8.888 8.365h-117.17v17.056h123.71c23.656-3.006 19.67-34.7 19.67-34.7h-17.318" fill-rule="nonzero"/>
</g>
<g transform="matrix(.022154 0 0 .022154 9.5753 9.5753)" fill="#fff" fill-opacity="1">
<path d="m151.95 512.66c-6.6 6.47-12.155-0.327-12.155-0.327l-82.929-82.863-11.959 12.155 87.373 87.438c18.821 14.573 38.491-10.717 38.491-10.717l-12.22-12.286-6.601 6.6" fill-rule="nonzero"/>
</g>
<g transform="matrix(.022154 0 0 .022154 9.5753 9.5753)" fill="#fff" fill-opacity="1">
<path d="m183.91 162 158.34 0.262-66.722 66.396c-9.541 9.737-14.377 20.716-14.377 35.093 0 13.789 5.49 26.075 14.639 35.093l100.96 101.75 0.131 82.145c0 15.423 12.481 27.97 28.035 27.97 14.115 0 27.904-16.337 27.904-27.97v-114.3c0-7.973-3.333-15.161-8.691-20.324l-67.049-66.853 88.941-88.941c16.729-20.847 7.907-45.875 7.907-45.875-9.28-27.774-40.713-28.688-40.713-28.688l-229.31-0.065c-12.22 0-22.153 9.868-22.153 22.154 0 12.284 9.933 22.151 22.153 22.151" fill-rule="nonzero"/>
</g>
<g transform="matrix(.022154 0 0 .022154 9.5753 9.5753)" fill="#fff" fill-opacity="1">
<path d="m255.79 304.59-132.27 132.53c-9.999 8.038-13.266 22.219-7.254 34.048 6.862 13.527 23.526 18.886 37.054 11.959 1.83-0.98 3.529-2.092 5.097-3.398l135.8-135.99-32.609-32.479c-2.092-2.026-4.052-4.248-5.817-6.666" fill-rule="nonzero"/>
</g>
</g>
</svg>
