<?xml version="1.0" encoding="UTF-8"?>
<svg width="32" height="32" version="1.2" viewBox="0 0 64 64" xmlns="http://www.w3.org/2000/svg" xmlns:cc="http://creativecommons.org/ns#">
<g transform="matrix(3.7743 0 0 3.7743 -28.388 -28.388)">
<g transform="matrix(.031279 0 0 .031279 6.9291 6.9291)" fill="#2eb7ff" fill-opacity="1">
<path d="m542.94 486.24c0 31.312-25.383 56.693-56.693 56.693h-392.49c-31.311 0-56.693-25.382-56.693-56.693v-392.48c0-31.311 25.382-56.693 56.693-56.693h392.48c31.311 0 56.693 25.382 56.693 56.693v392.48h1e-3"/>
</g>
<g transform="matrix(.031279 0 0 .031279 6.9291 6.9291)" fill="none" stroke="#fff" stroke-opacity="1" stroke-width="36.25px">
<path d="m542.94 486.24c0 31.312-25.383 56.693-56.693 56.693h-392.49c-31.311 0-56.693-25.382-56.693-56.693v-392.48c0-31.311 25.382-56.693 56.693-56.693h392.48c31.311 0 56.693 25.382 56.693 56.693v392.48h1e-3"/>
</g>
<g transform="matrix(.17133 0 0 -.17133 9.5753 21.858)" fill="#fff" fill-opacity="1">
<path d="m51.424 6.7648c1.069 0.45471 2.1077 0.97926 3.1084 1.5698 0.8516-0.0228 1.7036 0.0171 2.5495 0.11882 1.9892 0.21551 3.972 0.48347 5.947 0.80326-2.0701-1.4751-4.0596-3.0598-5.96-4.7481-1.6207-1.4096-3.1555-2.915-4.5958-4.5086-0.352 0.067-0.6955 0.17412-1.0235 0.31884-1.2741 0.56215-2.5033 1.2194-3.6779 1.9668-1.0769 0.6165-2.0584 1.3869-2.9128 2.2865 0.6386 0.2272 1.2861 0.42786 1.9408 0.60197 1.5775 0.41901 3.123 0.9502 4.6243 1.5907"/>
</g>
<g transform="matrix(.17133 0 0 -.17133 9.5753 21.858)" fill="#fff" fill-opacity="1">
<path d="m57.294 11.802c-5.9416-3.4475-12.487-5.7296-19.284-6.7228l-4.7096-0.43197-4.8442-0.24995-5.1311 0.0341c1.3316 0.81843 2.5514 1.8062 3.6283 2.9391l1.0639 1.2507c0.8715 1.0668 1.5626 2.2692 2.0458 3.5594 0.2534 0.7773 0.4512 1.5721 0.5915 2.3775l0.3128 1.8909 5.1283 0.5723 3.974 0.5088 2.6948 0.4228c1.5382 0.2875 3.055 0.6775 4.5411 1.1666l4.9715 1.7797 3.8346 1.658 3.8466 1.9396 3.6687 1.9873 2.8525 1.9879 3.6665 3.3827 2.715 3.7167-0.1848-1.4004c-0.7464-4.6281-2.4424-9.0514-4.9814-12.992-1.6586-2.6433-3.8267-4.9308-6.3774-6.7282l-1.3211-0.9243-2.7021-1.7244"/>
</g>
<g transform="matrix(.17133 0 0 -.17133 9.5753 21.858)" fill="#fff" fill-opacity="1">
<path d="m66.836 56.371c-1.101 0.8327-2.2954 1.5348-3.5591 2.0913l-21.099 8.777-0.3337 0.1479c-0.1435 0.0897-0.3315 0.0578-0.438-0.0739-0.086-0.0863-0.1336-0.2035-0.1324-0.3258 1e-3 -0.1216 0.0521-0.2379 0.14-0.3223l5.8794-7.5997 1.2615-1.7859c0.29-0.5451 0.4585-1.1468 0.4935-1.763 0.0161-0.6256-0.0774-1.2494-0.2765-1.8425l-0.6582-1.3045-0.5934-0.8677c1.1644 0.2013 2.3298 0.3941 3.4971 0.578 1.7332 0.3425 3.4911 0.5488 5.2569 0.6174 1.3654 0.0777 2.733 0.1154 4.1006 0.1125 1.1771-0.018 2.3526-0.0945 3.5224-0.2288 0.7319-0.085 1.4564-0.2215 2.1687-0.4089 0.5473-0.1908 1.068-0.4506 1.5503-0.7729 0.7473-0.5062 1.3319-1.2191 1.681-2.0514 0.3309-0.6573 0.511-1.3796 0.5271-2.115 0.2683 0.7363 0.3858 1.519 0.3457 2.3017-0.0348 0.875-0.1684 1.7434-0.3997 2.588-0.3391 0.923-0.7891 1.8012-1.3408 2.6149-0.4667 0.5599-0.9736 1.0848-1.5171 1.5705-0.0247 0.0221-0.0499 0.043-0.0765 0.0632"/>
</g>
<g transform="matrix(.17133 0 0 -.17133 9.5753 21.858)" fill="#fff" fill-opacity="1">
<path d="m20.423 75-13.432-57.093c-1.141-1.0996-2.1564-2.3227-3.0272-3.647 0.39657-0.0976 0.79168-0.1994 1.1864-0.3046 0.18581-0.0499 0.37016-0.1031 0.55407-0.1597 0.60513-0.1867 1.21-0.3751 1.8145-0.5647 0.18422-0.0578 0.36802-0.1171 0.55129-0.1778 0.45914-0.1516 0.91297-0.3197 1.3604-0.5036 1.0435-0.4288 2.0808-0.8736 3.1106-1.334 0.432-0.1934 0.8565-0.4027 1.2729-0.6277 0.1988-0.1071 0.389-0.2299 0.5685-0.367 0.0275-0.0208 0.0508-0.0461 0.0694-0.0754 0.0319-0.0408 0.0598-0.0847 0.0838-0.1306 0.0433-0.09126 0.0458-0.19651 7e-3 -0.28972-0.0389-0.0935-0.1152-0.16616-0.2106-0.19997-0.7212-0.15673-1.4494-0.2776-2.1825-0.36197-1.0886-0.17886-2.171-0.39081-3.2467-0.63508-1.05-0.25753-2.0888-0.561-3.112-0.91049-0.74101-0.23162-1.4751-0.48306-2.2029-0.75449-0.63293-0.2073-1.2617-0.42525-1.8867-0.65498-0.10681-0.0145-0.19585-0.09-0.22682-0.19302 4e-3 -0.0575 0.0333-0.10985 0.0801-0.14303 0.0468-0.0338 0.10625-0.0445 0.16155-0.0296l15.75-1.135c0.4636-0.0345 0.9292-0.0233 1.3905 0.0333 0.9793 0.097 1.9368 0.34984 2.8361 0.74895 1.1316 0.52865 2.1757 1.2263 3.0972 2.0691 0.8392 0.77892 1.5917 1.6465 2.2436 2.5875 0.5536 0.8696 1.0039 1.8006 1.3423 2.7745 0.3422 0.9224 0.5853 1.8783 0.7263 2.8518 0.1046 0.7805 0.1593 1.5668 0.1634 2.3543 3.7976 0.3299 7.5846 0.7653 11.358 1.3053 5.9249 1.0282 11.648 2.9936 16.954 5.823 1.4419 0.7297 2.8611 1.502 4.2563 2.3172 1.0987 0.5764 2.1498 1.2405 3.142 1.9853 0.8014 0.6589 1.5892 1.3344 2.3621 2.0261 0.881 0.8171 1.7079 1.6905 2.4755 2.6148 1.4131 1.7139 2.4515 3.7049 3.0481 5.8448 0.2629 1.0064 0.4607 2.0289 0.5924 3.0606 0.1116 0.8683 0.0924 1.7487-0.0565 2.612-0.1463 0.9227-0.3956 1.826-0.7438 2.6931-0.2263 0.5643-0.5054 1.1066-0.8327 1.6191 0.0123-0.3848 0.0265-0.7698 0.0417-1.1544-0.0427-0.9789-0.173-1.9521-0.3879-2.9083-0.2326-0.8627-0.5765-1.6914-1.023-2.4653-0.3163-0.608-0.709-1.1735-1.1688-1.6816-0.6143-0.7202-1.3116-1.3656-2.0769-1.9224-0.7265-0.5659-1.4815-1.0945-2.2617-1.584-0.8443-0.5296-1.7348-0.9826-2.6597-1.3539-0.7429-0.3413-1.5158-0.6118-2.3093-0.8087-0.9524-0.2882-1.9311-0.4809-2.9217-0.5753-0.7173-0.0828-1.4403-0.1145-2.1617-0.0949-0.181 0.0186-0.3302 0.1509-0.3703 0.3282-0.0142 0.1384 0.0195 0.2773 0.0954 0.3939 0.1527 0.1978 0.3059 0.3954 0.4601 0.592l3.8836 4.6959-14.228-1.1581c-1.1379-0.1324-2.289-0.1048-3.4193 0.0819-0.9154 0.1435-1.8097 0.4014-2.6606 0.7679-1.1408 0.5457-2.2712 1.1132-3.3911 1.7006l-4.3043-11.864c-1.3926-0.3451-2.7738-0.7366-4.1405-1.1739-1.0633-0.3745-2.1264-0.7479-3.1907-1.1202-1.0867-0.3877-2.1464-0.8466-3.1721-1.3743-2.0732-0.9985-4.0781-2.1339-6.0013-3.3975-0.8479-0.582-1.6971-1.149-2.4926-1.7998l12.513 52.169-4.0504 0.6796m-7.0527-54.774c1.1252 0 2.0371-0.9119 2.0371-2.0371 0-1.1249-0.9118-2.0372-2.0371-2.0372s-2.0372 0.9122-2.0372 2.0372c0 1.1252 0.9119 2.0371 2.0372 2.0371"/>
</g>
</g>
</svg>
