<?xml version="1.0" encoding="UTF-8"?>
<svg width="32" height="32" version="1.2" viewBox="0 0 32 32" xmlns="http://www.w3.org/2000/svg" xmlns:cc="http://creativecommons.org/ns#" xmlns:dc="http://purl.org/dc/elements/1.1/" xmlns:rdf="http://www.w3.org/1999/02/22-rdf-syntax-ns#">
<title id="title20">&quot;Elderly&quot; by Luis Prado (CC)</title>
<g transform="matrix(1.7104 0 0 1.7104 -11.367 -11.367)" font-size="6.6" font-weight="400" stroke-linecap="square" stroke-linejoin="bevel">
<g fill="#5f487e" stroke="#fff" stroke-linecap="square" stroke-linejoin="bevel" stroke-width="1.7008">
<path d="m24.504 16c0 4.6966-3.8073 8.5039-8.5039 8.5039s-8.5039-3.8073-8.5039-8.5039 3.8073-8.5039 8.5039-8.5039 8.5039 3.8073 8.5039 8.5039" fill-rule="evenodd"/>
</g>
<g transform="matrix(.13606 0 0 .13606 8.6299 10.047)" fill="#fff">
<path d="m75.764 15.633c2.217-5.266-0.28-11.332-5.535-13.526-5.247-2.209-11.313 0.277-13.521 5.556-2.194 5.276 0.298 11.318 5.549 13.518 5.256 2.199 11.322-0.287 13.507-5.548"/>
</g>
<g transform="matrix(.13606 0 0 .13606 8.6299 10.047)" fill="#fff">
<path d="m71.583 53.676v42.723c0 1.176 0.955 2.13 2.13 2.13 1.177 0 2.13-0.954 2.13-2.13v-42.723h-4.26"/>
</g>
<g transform="matrix(.13606 0 0 .13606 8.6299 10.047)" fill="#fff">
<path d="m80.809 29.223c-5.086 0-9.227 4.14-9.227 9.226v1.081h-18.02v-21.149c0-4.173-2.99-6.368-6.147-6.821-1.686-0.238-4.202 0.307-5.433 0.732-0.592 0.203-14.609 5.148-22.348 16.051-9.325 13.143-9.66 28.21-9.669 28.843-0.028 1.718 0.63798 3.374 1.843 4.599 1.206 1.227 2.85 1.915 4.569 1.915h35.481v28.583c0 3.546 2.869 6.417 6.415 6.417 3.543 0 6.414-2.871 6.414-6.417v-34.998c0-3.002-2.074-5.509-4.864-6.206h13.635c3.19 0 5.777-2.587 5.777-5.772 0-2.34-1.396-4.34-3.392-5.25v-1.607c0-2.74 2.228-4.966 4.967-4.966s4.966 2.227 4.966 4.966v8.278c0 1.176 0.953 2.13 2.13 2.13 1.176 0 2.13-0.954 2.13-2.13v-8.278c-1e-3 -5.087-4.141-9.227-9.227-9.227m-46.364 17.999c0.882-3.132 2.169-6.671 4.102-10.195 1.051-1.915 2.249-3.613 3.467-5.107v13.388c0 1.21 0.428 2.513 1.792 3.471l-9.361-1.557"/>
</g>
</g>
</svg>
