<?xml version="1.0" encoding="UTF-8"?>
<svg width="32" height="32" version="1.2" viewBox="0 0 64 64" xmlns="http://www.w3.org/2000/svg" xmlns:cc="http://creativecommons.org/ns#">
<g transform="matrix(.11806 0 0 .11806 -2.2355 -2.2355)" fill="#5f487e">
<path transform="matrix(16.941,0,0,16.941,18.936,18.936)" d="m4.418 2.1406c-1.27 0-2.2773 1.0073-2.2773 2.2773v23.166c0 1.27 1.0073 2.2754 2.2773 2.2754h23.168c1.2682 0 2.2707-1.0039 2.2734-2.2715v-23.17c0-1.27-1.0054-2.2773-2.2754-2.2773z"/>
</g>
<path d="m32.489 8.4285 0.71411 0.094593 0.64206 0.16638 0.6381 0.1912 0.64206 0.33275 0.61979 0.30927 0.52412 0.37737 0.54378 0.5253 0.47441 0.47565 0.43238 0.52429 0.38005 0.56991 0.28412 0.61586 0.26231 0.64471 0.21334 0.66417 0.09191 0.64236 0.09828 0.71146v0.2868l-0.06809 0.75876-0.07212 0.69033-0.14424 0.66316-0.21736 0.64203-0.30692 0.61989-0.37737 0.64203-0.36026 0.54777-0.45183 0.52261-0.47186 0.47565-0.52412 0.37871-0.61844 0.38005-0.64206 0.35758-0.61975 0.26097-0.61586 0.16772-0.76127 0.11908-0.69184 0.11807h-0.23715l-0.7128-0.07212-0.71411-0.07212-0.64075-0.18885-0.66433-0.16504-0.61844-0.33275-0.61979-0.33544-0.52016-0.37871-0.57132-0.50047-0.50054-0.5216-0.42584-0.47431-0.33282-0.56991-0.30921-0.64605-0.23719-0.66282-0.26335-0.66584-0.11794-0.61821-0.04978-0.69201v-0.33007l0.04978-0.71415 0.07205-0.68932 0.18738-0.68798 0.19395-0.64068 0.30921-0.61989 0.35379-0.61821 0.38129-0.5216 0.47565-0.54643 0.45338-0.50316 0.54378-0.37603 0.59617-0.4089 0.61717-0.33007 0.61583-0.26198 0.64598-0.16537 0.70888-0.094258 0.66822-0.094258h0.35378l0.69184 0.022139m7.0586 40.509 4.4248 0.04324 0.02382 6.6366h-24.678v-6.6366l5.1362-0.11532v-15.476l-4.8273-0.02227 0.02358-6.4689h19.919l-0.02214 22.039" fill="#fff"/>
<path d="m8.8359 0.0019529c-4.8529 0-8.834 3.9811-8.834 8.834v46.334c0 4.8529 3.9811 8.832 8.834 8.832h46.336c4.8527 0 8.832-3.9791 8.832-8.832l-2e-3 -46.334c0.14057-4.6521-3.9792-8.834-8.832-8.834zm0 4.2793h46.334c2.5401 0 4.5527 2.0146 4.5527 4.5547v46.344c-0.0056 2.5353-2.0143 4.543-4.5508 4.543h-46.336c-2.5401 0-4.5547-2.0127-4.5547-4.5527v-46.334c0-2.5401 2.0146-4.5547 4.5547-4.5547z" fill="#fff"/>
</svg>
