<?xml version="1.0" encoding="UTF-8"?>
<svg width="32" height="32" version="1.1" viewBox="0 0 32 32" xmlns="http://www.w3.org/2000/svg" xmlns:cc="http://creativecommons.org/ns#">
<g transform="matrix(.059028 0 0 .059028 -1.1183 -1.1182)" fill="#2eb7ff">
<path d="m542.94 486.24c0 31.312-25.383 56.693-56.693 56.693h-392.49c-31.311 0-56.693-25.382-56.693-56.693v-392.48c0-31.311 25.382-56.693 56.693-56.693h392.48c31.311 0 56.693 25.382 56.693 56.693v392.48h1e-3"/>
</g>
<g transform="matrix(.059028 0 0 .059028 -1.1183 -1.1182)" fill="none" stroke="#fff" stroke-width="36.25">
<path d="m542.94 486.24c0 31.312-25.383 56.693-56.693 56.693h-392.49c-31.311 0-56.693-25.382-56.693-56.693v-392.48c0-31.311 25.382-56.693 56.693-56.693h392.48c31.311 0 56.693 25.382 56.693 56.693v392.48h1e-3"/>
</g>
<path d="m24.235 24.324-0.04285-14.399-2.2497-0.015278 0.01105-2.4191h4.0862l-9e-3 -2.9989-10.399-0.0073 9e-3 2.9677 4.0077 0.052345 0.02344 2.4219-2.1813 0.038527-0.03855 9.5808h-8.8794c-0.6015 0-0.96512-0.86273-1.0483-1.4546-0.11144-0.79327 0.35008-1.6079 0.8135-2.2613 0.33229-0.46853 0.88424-0.73367 1.3374-1.0867 0.83522-0.65071 1.851-1.1008 2.5451-1.9004 0.50405-0.58061 0.94773-1.2715 1.1068-2.0238 0.16593-0.78492 0.09782-1.654-0.20141-2.3984-0.36444-0.90658-1.0138-1.7639-1.8447-2.2781-0.52505-0.32492-1.1952-0.32897-1.8085-0.40095-1.2451-0.14614-3.7606-0.058272-3.7606-0.058272l0.00114 2.4779s2.1826-0.10558 3.2596 0.03855c0.5265 0.07046 1.1583 0.03384 1.5423 0.40081 0.36825 0.35188 0.50818 0.95376 0.45115 1.4599-0.05574 0.49466-0.4074 0.9293-0.74738 1.2929-0.81492 0.87153-1.5686 0.79516-2.9719 1.9952-0.83734 0.71604-1.0936 1.1247-1.462 1.8061-0.3769 0.69715-0.64884 1.475-0.72699 2.2637-0.061794 0.62357 0.022769 1.2706 0.21236 1.8678 0.1437 0.4527 0.37812 0.88693 0.68505 1.2494 0.38484 0.45445 0.8731 0.83468 1.4036 1.1052 0.53867 0.27473 1.1406 0.49472 1.7453 0.49472h8.2554v2.2198l-2.8334 0.02748 0.01117 3.1376s8.3684 0.0031 12.405 0.0031l-0.0019-3.1996-2.7056 5.77e-4z" fill="#fff" fill-opacity=".99608"/>
</svg>
