<?xml version="1.0" encoding="UTF-8"?>
<svg width="32" height="32" version="1.2" viewBox="0 0 64 64" xmlns="http://www.w3.org/2000/svg" xmlns:cc="http://creativecommons.org/ns#">
<g transform="matrix(3.7743 0 0 3.7743 -28.388 -28.388)">
<g transform="matrix(.031279 0 0 .031279 6.9291 6.9291)" fill="#2eb7ff" fill-opacity="1">
<path d="m542.94 486.24c0 31.312-25.383 56.693-56.693 56.693h-392.49c-31.311 0-56.693-25.382-56.693-56.693v-392.48c0-31.311 25.382-56.693 56.693-56.693h392.48c31.311 0 56.693 25.382 56.693 56.693v392.48h1e-3"/>
</g>
<g transform="matrix(.031279 0 0 .031279 6.9291 6.9291)" fill="none" stroke="#fff" stroke-opacity="1" stroke-width="36.25">
<path d="m542.94 486.24c0 31.312-25.383 56.693-56.693 56.693h-392.49c-31.311 0-56.693-25.382-56.693-56.693v-392.48c0-31.311 25.382-56.693 56.693-56.693h392.48c31.311 0 56.693 25.382 56.693 56.693v392.48h1e-3"/>
</g>
<g transform="matrix(.20145 0 0 -.20145 14.284 17.713)" fill="#fff" fill-opacity="1">
<path d="m10.764 36.836 3.6855-0.7757 3.9314-1.8144 2.6143-2.1841 0.9373-1.1249 2.2784-2.9321 1.4705-3.3967 0.5935-5.6187-0.5935-3.8074-2.1239-4.8635-1.9948-2.7155-1.9693-1.7163-2.7428-1.7508-4.2722-1.6218-5.4637-0.4334-3.7096 0.12385 0.05847-21.656h-12.51l-0.02927 56.069h0.05851l19.781 0.2183m-9.5121-24.617v-0.0275l0.49874-0.0362 4.2118 0.0637 6.1431 0.1892 2.0947 1.436 1.5325 2.2753 0.619 2.6534 0.0344 0.4988-0.129 1.7439-1.1267 2.4682-1.2742 1.8724-2.4679 1.3415-1.7112 0.0295-8.3977 0.2184h-0.05675l0.02923-14.727"/>
</g>
</g>
</svg>
