<?xml version="1.0" encoding="UTF-8"?>
<svg width="32" height="32" version="1.2" viewBox="0 0 64 64" xmlns="http://www.w3.org/2000/svg" xmlns:cc="http://creativecommons.org/ns#">
<g transform="matrix(3.7743 0 0 3.7743 -28.388 -28.388)" font-size="8.25" font-weight="400" stroke-linecap="square" stroke-linejoin="bevel">
<g transform="matrix(.031279 0 0 .031279 6.9291 6.9291)" fill="#2eb7ff" fill-opacity="1">
<path d="m542.94 486.24c0 31.312-25.383 56.693-56.693 56.693h-392.49c-31.311 0-56.693-25.382-56.693-56.693v-392.48c0-31.311 25.382-56.693 56.693-56.693h392.48c31.311 0 56.693 25.382 56.693 56.693v392.48h1e-3"/>
</g>
<g transform="matrix(.031279 0 0 .031279 6.9291 6.9291)" fill="none" stroke="#fff" stroke-opacity="1" stroke-width="36.25px">
<path d="m542.94 486.24c0 31.312-25.383 56.693-56.693 56.693h-392.49c-31.311 0-56.693-25.382-56.693-56.693v-392.48c0-31.311 25.382-56.693 56.693-56.693h392.48c31.311 0 56.693 25.382 56.693 56.693v392.48h1e-3"/>
</g>
<g transform="matrix(.018425 0 0 .018425 14.058 12.924)" fill="#fff" fill-opacity="1">
<path d="m146.1 248.46c-44.367 27.687-73.971 76.941-73.971 132.95 0 86.307 70.29 156.6 156.6 156.6 66.644 0 123.73-41.915 146.28-100.75l-21.316-36.951c-9.079 60.95-61.425 107.46-124.97 107.46-69.968 0-126.36-56.396-126.36-126.36 0-39.157 17.667-74.06 45.487-97.209l-1.75-35.739"/>
</g>
<g transform="matrix(.018425 0 0 .018425 14.058 12.924)" fill="#fff" fill-opacity="1">
<path d="m200.22 122.8c-22.41 6e-3 -40.612 18.104-40.746 40.514h-0.022l0.012 0.222c-1e-3 8e-3 -1e-3 0.015-2e-3 0.022 8e-3 1.156 0.066 2.311 0.172 3.463l7.41 151.28c-0.235 1.622-0.359 3.258-0.373 4.897 0 20.074 16.273 36.348 36.348 36.347 1.003-6e-3 2.006-0.055 3.006-0.144l144.3 0.047 72.457 125.59 17.45-10.069 58.627-33.769c0.516-0.263 1.018-0.552 1.504-0.868l0.125-0.072-8e-3 -0.012c4.616-3.046 7.395-8.205 7.398-13.736 0-9.095-7.373-16.469-16.469-16.469-2.554 2e-3 -5.073 0.598-7.357 1.741l-4e-3 -6e-3 -0.061 0.035c-0.528 0.267-1.041 0.562-1.537 0.885l-27.232 15.687-62.766-108.8c-0.657-1.38-1.423-2.707-2.289-3.967l-0.396-0.687-0.067 0.039c-5.452-7.501-14.16-11.945-23.433-11.959-0.744 3e-3 -1.488 0.035-2.229 0.096v-0.069l-116.29-0.037-1.611-32.894 80.515-0.141c0.492 0.047 0.985 0.072 1.479 0.074 9.095 0 16.468-7.373 16.468-16.469 0-9.095-7.373-16.468-16.468-16.468-0.581 5e-3 -1.161 0.042-1.739 0.109l-81.859 0.143-3.586-73.186c0.012-0.204 0.022-0.409 0.031-0.613 0-22.51-18.248-40.758-40.757-40.758"/>
</g>
<g transform="matrix(.018425 0 0 .018425 14.058 12.924)" fill="#fff" fill-opacity="1">
<path d="m194.72 114.69c9.872 0 18.401-3.591 25.583-10.773 7.182-7.1825 10.773-15.71 10.774-25.584-1e-3 -10.311-3.592-18.945-10.774-25.902-7.182-6.9562-15.711-10.434-25.583-10.435-9.874 1e-3 -18.399 3.4791-25.574 10.435-7.175 6.9571-10.764 15.591-10.763 25.902-1e-3 9.8743 3.588 18.402 10.763 25.584 7.176 7.182 15.7 10.774 25.574 10.773"/>
</g>
<g transform="matrix(.16139 0 0 -.16139 12.925 16.239)" fill="#fff" fill-opacity="1">
<path d="m10.764 36.836 3.6855-0.7757 3.9314-1.8144 2.6143-2.1841 0.9373-1.1249 2.2784-2.9321 1.4705-3.3967 0.5935-5.6187-0.5935-3.8074-2.1239-4.8635-1.9948-2.7155-1.9693-1.7163-2.7428-1.7508-4.2722-1.6218-5.4637-0.4334-3.7096 0.12385 0.05847-21.656h-12.51l-0.02927 56.069h0.05851l19.781 0.2183m-9.5121-24.617v-0.0275l0.49874-0.0362 4.2118 0.0637 6.1431 0.1892 2.0947 1.436 1.5325 2.2753 0.619 2.6534 0.0344 0.4988-0.129 1.7439-1.1267 2.4682-1.2742 1.8724-2.4679 1.3415-1.7112 0.0295-8.3977 0.2184h-0.05675l0.02923-14.727"/>
</g>
</g>
</svg>
