<svg width="110" height="110" xmlns="http://www.w3.org/2000/svg" xmlns:xlink="http://www.w3.org/1999/xlink" xml:space="preserve" overflow="hidden"><g transform="translate(5 5)"><path d="M100 50.0002C100 77.6147 77.6147 100 50.0002 100 22.3857 100 0 77.6147 0 50.0002 0 22.3857 22.3857 0 50.0002 0 77.6147 0 100 22.3857 100 50.0002" stroke="#FFFFFF" stroke-width="9.99961" stroke-miterlimit="8" fill="#FF8AB0" fill-rule="evenodd"/><path d="M28.9668 45.9016C28.9668 50.8721 24.9371 54.9014 19.9666 54.9014 14.9962 54.9014 10.9665 50.8721 10.9665 45.9016 10.9665 40.9312 14.9962 36.9015 19.9666 36.9015 24.9371 36.9015 28.9668 40.9312 28.9668 45.9016Z" fill="#FFFFFF" fill-rule="evenodd"/><path d="M71.1289 70.2054C70.8364 69.7974 70.3058 69.7177 69.9046 70.0012L58.2268 78.8783C57.837 79.1847 57.7612 79.7626 58.0317 80.1596L59.6135 82.4609C59.9059 82.8688 60.4584 82.9485 60.8377 82.665L72.5155 73.788C72.9053 73.482 72.9811 72.9037 72.7106 72.5067L71.1289 70.2054" fill="#FFFFFF" fill-rule="evenodd"/><path d="M48.8849 51.8379 54.1287 60.8729 56.8852 58.8598 51.6419 49.8729 48.8849 51.8379" fill="#FFFFFF" fill-rule="evenodd"/><path d="M44.9353 39.069 26.4122 5.95105 23.9354 7.53902 42.4063 40.9515 44.9346 39.0686" fill="#FFFFFF" fill-rule="evenodd"/><path d="M83.8421 54.8457 66.6449 54.8231C65.2755 54.8231 64.0847 55.4148 63.0382 56.1735L49.7258 65.5587 40.5759 56.4862 53.3207 47.1346C55.3021 45.4716 55.5583 42.5144 53.9109 40.5282 52.2303 38.5639 49.3024 38.3075 47.3213 39.9591L27.4189 54.1651C24.5246 56.6087 24.0015 62.1215 26.4171 65.0232L40.7981 79.452C40.7981 79.452 44.7164 84.5744 51.1724 79.9098L69.4942 66.9424 83.8421 66.9649C87.1926 66.9649 89.8865 64.2642 89.8865 60.9055 89.8861 57.5686 87.1922 54.8457 83.8421 54.8457" fill="#FFFFFF" fill-rule="evenodd"/></g></svg>