<?xml version="1.0" encoding="UTF-8"?>
<svg width="32" height="32" version="1.2" viewBox="0 0 32 32" xmlns="http://www.w3.org/2000/svg" xmlns:cc="http://creativecommons.org/ns#" xmlns:dc="http://purl.org/dc/elements/1.1/" xmlns:rdf="http://www.w3.org/1999/02/22-rdf-syntax-ns#">
<g transform="matrix(1.7104 0 0 1.7104 -11.367 -11.367)">
<g fill="#8eb63e" stroke="#fff" stroke-width="1.7008">
<path d="m24.504 16c0 4.6966-3.8073 8.5039-8.5039 8.5039s-8.5039-3.8073-8.5039-8.5039 3.8073-8.5039 8.5039-8.5039 8.5039 3.8073 8.5039 8.5039" fill-rule="evenodd"/>
</g>
<g transform="matrix(.026392 0 0 .026392 8.3465 7.7795)" fill="#fff">
<circle cx="98.928" cy="285.78" r="57.534"/>
</g>
<g transform="matrix(.026392 0 0 .026392 8.3465 7.7795)" fill="#fff">
<path d="m429.7 443.53c-1.956-2.607-5.506-3.115-8.188-1.304l-78.111 56.735c-2.608 1.957-3.116 5.652-1.305 8.188l10.58 14.71c1.956 2.607 5.65 3.115 8.188 1.304l78.111-56.735c2.608-1.957 3.115-5.652 1.305-8.188l-10.58-14.71"/>
</g>
<g transform="matrix(.026392 0 0 .026392 8.3465 7.7795)" fill="#fff">
<path d="m285.94 326.58 31.013 54.634 16.304-12.173-31.012-54.345-16.305 11.884"/>
</g>
<g transform="matrix(.026392 0 0 .026392 8.3465 7.7795)" fill="#fff">
<path d="m260.95 242.09-120.5-211.58-16.114 10.145 120.16 213.46 16.449-12.028"/>
</g>
<g transform="matrix(.026392 0 0 .026392 8.3465 7.7795)" fill="#fff">
<path d="m509.85 345.42-111.95-0.146c-8.913 0-16.666 3.841-23.477 8.768l-86.662 60.939-59.562-58.91 82.966-60.721c12.898-10.797 14.564-29.999 3.841-42.896-10.941-12.753-29.999-14.419-42.896-3.695l-129.56 92.241c-18.839 15.868-22.245 51.663-6.521 70.503l93.618 93.69s25.506 33.259 67.532 2.971l119.27-84.198 93.4 0.146c21.81 0 39.346-17.536 39.346-39.346-1e-3 -21.665-17.537-39.346-39.346-39.346"/>
</g>
</g>
</svg>
