<svg width="113" height="110" xmlns="http://www.w3.org/2000/svg" xmlns:xlink="http://www.w3.org/1999/xlink" xml:space="preserve" overflow="hidden"><g transform="translate(5 5)"><path d="M100 50.0002C100 77.6147 77.6147 100 50.0002 100 22.3857 100 0 77.6147 0 50.0002 0 22.3857 22.3857 0 50.0002 0 77.6147 0 100 22.3857 100 50.0002" stroke="#FFFFFF" stroke-width="9.99961" stroke-linecap="square" stroke-linejoin="bevel" stroke-miterlimit="10" fill="#3E94B6" fill-rule="evenodd"/><path d="M27.8457 34.9631C27.6571 29.8803 27.5436 26.4756 27.5047 24.7443 26.7127 18.8728 24.8593 15.9371 21.9452 15.9371 20.621 15.9371 19.9589 16.7447 19.9589 18.3627 19.9589 18.8535 20.1695 19.7383 20.5851 21.0174 21.0396 22.2604 21.264 23.1427 21.264 23.6718L21.264 46.7031C21.264 47.2683 21.5493 48.0594 22.1169 49.0765 22.7958 50.317 23.6103 50.9372 24.5547 50.9372 26.8262 50.9372 27.9592 46.8547 27.9592 38.6867 27.9592 37.9342 27.9398 37.1234 27.9035 36.2583L27.8457 34.9628" fill="#FFFFFF" fill-rule="evenodd"/><path d="M79.4031 16.1559C77.6567 14.0114 75.3877 12.9407 72.6018 12.9407 69.816 12.9407 68.423 13.4662 68.423 14.5209 68.423 14.9335 68.7223 15.4401 69.3157 16.0431 69.7617 16.4947 70.7086 17.1334 72.1558 17.9591 73.4945 18.672 74.3105 19.2557 74.6097 19.707 75.1265 20.4203 75.3877 21.7362 75.3877 23.6518 75.3877 26.6221 74.3102 28.6509 72.1558 29.7412 69.4844 31.0571 67.4765 32.0342 66.1378 32.6728 63.9505 34.5146 62.8514 37.7658 62.8514 42.4261 62.8514 45.6223 63.2214 47.764 63.9666 48.8539 64.9301 50.244 66.9431 50.9405 69.9846 50.9405 74.6259 50.9405 76.9492 50.3954 76.9492 49.3055 76.9492 48.6282 76.2476 47.8025 74.8327 46.8251 73.3092 45.8094 72.1774 45.0382 71.4376 44.5128 70.0609 43.5356 69.3696 42.0516 69.3696 40.0585 69.3696 37.804 70.4472 36.0561 72.6018 34.8174L78.6198 31.4341C80.7745 29.6283 81.8516 26.9605 81.8516 23.4287 81.8516 20.5713 81.0356 18.1462 79.4031 16.1559" fill="#FFFFFF" fill-rule="evenodd"/><path d="M63.4941 65.7149C64.3078 62.1135 64.7149 59.8012 64.7149 58.7825 64.7149 57.8405 64.6603 57.0696 64.552 56.4749 64.2156 54.515 63.0651 52.7694 61.1009 51.2273 59.1424 49.6498 57.1782 48.8597 55.214 48.8597 54.4002 48.8597 53.6787 49.0468 53.0493 49.4238 52.2678 49.9115 51.8826 50.5306 51.8826 51.2826 51.8826 51.8853 52.1595 52.3894 52.7129 52.8076 54.3841 53.7106 55.6429 54.3825 56.4893 54.8342 57.6394 55.5111 58.2143 57.0147 58.2143 59.3492 58.2143 61.0398 57.8779 62.433 57.2162 63.5231 57.0641 63.7437 56.4563 64.4814 55.3822 65.7149 54.7147 66.469 54.3837 67.257 54.3837 68.0883 54.3837 68.4625 55.0131 69.5911 56.2719 71.4692 57.5634 73.3469 58.2143 74.9272 58.2143 76.2102 58.2143 77.4874 57.9216 78.5006 57.3245 79.2497 56.9175 79.7785 56.0876 80.4722 54.8284 81.3367 53.5696 82.1683 52.7125 82.8235 52.2674 83.3134 52.0099 83.578 51.8823 83.9303 51.8823 84.3816 51.8823 86.034 52.9514 86.8598 55.0999 86.8598 56.9175 86.8598 58.8275 85.9619 60.8294 84.1559 62.7503 82.4657 63.9926 80.6979 64.5517 78.8533 64.7686 78.1429 64.8827 77.2399 64.8827 76.1498 64.8827 73.8972 64.4215 71.6949 63.4934 69.5529 63.1193 68.6885 63.1193 67.411 63.4941 65.7149" fill="#FFFFFF" fill-rule="evenodd"/><path d="M52.3783 32.7827C53.0522 32.54 53.798 32.272 54.5376 31.945 54.7104 31.9593 54.889 31.9736 55.0811 31.9736 56.6405 31.9736 57.9046 30.7355 57.9046 29.2086 57.9046 27.6967 56.6653 26.4683 55.1267 26.4443 55.0837 26.4415 55.0334 26.4368 54.9801 26.4322 54.347 26.3783 53.4794 26.3044 52.6013 26.7242L52.5722 26.7384C51.939 27.05 51.1725 27.3256 50.431 27.5922 50.0432 27.7317 49.6423 27.8759 49.2482 28.0294 49.1604 28.064 49.063 28.0983 48.9617 28.1329 48.7627 25.536 48.5513 22.8599 48.1237 20.2687 47.8755 18.7615 46.4251 17.7365 44.8865 17.9802 43.3472 18.2233 42.3007 19.6427 42.5492 21.15 42.9513 23.5894 43.1445 26.116 43.3493 28.791 43.3537 28.8499 43.3581 28.9092 43.3628 28.9677 42.7563 29.0434 42.0852 29.1569 41.3639 29.2843 41.1586 29.3203 40.8987 29.3664 40.7278 29.3942 40.4974 29.3942 40.263 29.4224 40.0294 29.4809 38.5185 29.8589 37.6069 31.3647 37.9932 32.8441 38.0534 33.0736 38.606 34.9259 40.8204 34.9259 41.026 34.9259 41.2465 34.9099 41.482 34.8749 41.7244 34.8392 42.0218 34.7867 42.3666 34.7257 42.7341 34.6608 43.3483 34.5523 43.8651 34.4791 44.0966 36.4282 44.4115 38.3708 44.8941 40.2674 44.9058 40.3438 44.9175 40.528 44.9255 40.6518 44.9459 40.9755 44.9696 41.3428 45.0527 41.7372 45.3275 43.0446 46.5035 43.9447 47.8153 43.9447 48.0041 43.9447 48.1955 43.9261 48.3876 43.8872 49.9087 43.5806 50.89 42.1298 50.5874 40.6408 50.5787 40.5772 50.5685 40.4141 50.5612 40.3053 50.5368 39.9234 50.5061 39.4476 50.3782 38.9487 49.9514 37.2773 49.6718 35.5441 49.4625 33.7538 50.1413 33.5822 50.7824 33.3834 51.3409 33.1646 51.6602 33.0407 52.0086 32.9155 52.3783 32.7827M43.3916 31.2391C43.3654 31.1655 43.3359 31.0938 43.3038 31.0235 43.3359 31.0934 43.3654 31.1652 43.3916 31.2391M41.7368 29.5766C41.5552 29.5084 41.3664 29.4584 41.1721 29.4285 41.3602 29.4559 41.5501 29.5056 41.7368 29.5766" fill="#FFFFFF" fill-rule="evenodd"/><path d="M43.1684 60.8731 43.0961 60.8731C42.1737 60.8716 41.2121 60.8727 40.1289 61.1132 39.8744 61.1712 39.6522 61.2367 39.4558 61.2948 39.3453 61.3274 39.1984 61.3706 39.1231 61.3872 37.8492 61.3812 34.0086 61.1971 32.1475 61.1078 30.9199 61.0491 30.8108 61.0445 30.6921 61.0445 29.1668 61.0445 27.93 62.2722 27.93 63.7875 27.93 65.2865 29.1404 66.5046 30.6439 66.5301 30.7666 66.5344 31.3082 66.5602 31.8811 66.5878 34.7637 66.7259 37.943 66.8736 39.182 66.8736 39.946 66.8736 40.5728 66.6884 41.0306 66.5531 41.1576 66.5156 41.2777 66.4802 41.3462 66.4646 41.8214 66.3591 42.384 66.3584 43.095 66.3594L43.1684 66.3594C44.6937 66.3594 45.9305 65.1313 45.9305 63.6164 45.9302 62.1015 44.6937 60.8731 43.1684 60.8731" fill="#FFFFFF" fill-rule="evenodd"/><path d="M42.7143 71.8937C41.8736 72.0745 41.2506 72.2387 40.3915 72.4693 39.0431 72.835 37.2513 73.204 35.6702 73.5295 34.6163 73.7466 33.7065 73.9341 33.0293 74.0983 31.5802 74.4505 30.6697 76.0048 30.9958 77.5701 31.2774 78.9205 32.3872 79.8377 33.6176 79.8377 33.8131 79.8377 34.012 79.8145 34.211 79.7661 34.801 79.6225 35.7129 79.4346 36.6783 79.2358 38.3302 78.8957 40.2026 78.5102 41.6962 78.1052 42.499 77.8896 43.039 77.7471 43.7651 77.5911 45.2219 77.2776 46.1678 75.748 45.8775 74.1748 45.5875 72.6013 44.1704 71.5798 42.7143 71.8937" fill="#FFFFFF" fill-rule="evenodd"/></g></svg>