<?xml version="1.0" encoding="UTF-8"?>
<svg width="32" height="32" version="1.2" viewBox="0 0 32 32" xmlns="http://www.w3.org/2000/svg" xmlns:cc="http://creativecommons.org/ns#" xmlns:dc="http://purl.org/dc/elements/1.1/" xmlns:rdf="http://www.w3.org/1999/02/22-rdf-syntax-ns#">
<g transform="matrix(1.7104 0 0 1.7104 -11.367 -11.367)" font-size="6.6" font-weight="400" stroke-linecap="square" stroke-linejoin="bevel">
<g fill="#8eb63e" stroke="#fff" stroke-linecap="square" stroke-linejoin="bevel" stroke-width="1.7008">
<path d="m24.504 16c0 4.6966-3.8073 8.5039-8.5039 8.5039s-8.5039-3.8073-8.5039-8.5039 3.8073-8.5039 8.5039-8.5039 8.5039 3.8073 8.5039 8.5039" fill-rule="evenodd"/>
</g>
<g transform="matrix(.026392 0 0 .026392 8.3465 8.3465)" fill="#fff">
<path d="m523.74 297.84c1.294-0.744 2.188-2.027 2.437-3.498 0.249-1.472-0.171-2.978-1.147-4.106l-222.69-257.55c-1.544-1.787-4.13-2.247-6.197-1.107l-224.63 123.93c-1.327 0.732-2.25 2.027-2.51 3.521s0.171 3.024 1.173 4.162l228.5 259.48c0.978 1.109 2.356 1.695 3.755 1.695 0.852 0 1.711-0.217 2.491-0.666l218.82-125.87"/>
</g>
<g transform="matrix(.026392 0 0 .026392 8.3465 8.3465)" fill="#fff">
<path d="m291.28 444.16c-0.012-1.197-0.453-2.352-1.244-3.251l-224.63-255.61c-1.368-1.557-3.554-2.106-5.496-1.387-1.942 0.721-3.239 2.565-3.259 4.637l-0.968 96.339c-0.013 1.238 0.435 2.436 1.255 3.363l226.56 256.1c0.968 1.094 2.341 1.687 3.746 1.687h0.069c2.738-0.027 4.951-2.255 4.951-5 0-0.169-9e-3 -0.336-0.025-0.501l-0.966-96.371"/>
</g>
<g transform="matrix(.026392 0 0 .026392 8.3465 8.3465)" fill="#fff" opacity=".75">
<path d="m523.95 320.2c-2.609-1.67-5.931-1.733-8.603-0.167l-206.25 120.85c-2.408 1.411-3.938 3.946-4.065 6.735l-0.145 3.186c-0.137 3.017 1.388 5.866 3.974 7.427 1.309 0.79 2.782 1.185 4.257 1.185 1.439 0 2.879-0.376 4.165-1.13l206.08-120.77c2.279-1.336 3.78-3.684 4.035-6.313l0.317-3.272c0.3-3.082-1.154-6.071-3.762-7.738"/>
</g>
<g transform="matrix(.026392 0 0 .026392 8.3465 8.3465)" fill="#fff" opacity=".75">
<path d="m523.95 360.2c-2.609-1.669-5.931-1.732-8.603-0.167l-206.25 120.85c-2.408 1.411-3.938 3.946-4.065 6.735l-0.145 3.186c-0.137 3.017 1.388 5.866 3.974 7.427 1.309 0.79 2.782 1.185 4.257 1.185 1.439 0 2.879-0.376 4.165-1.13l206.08-120.77c2.279-1.336 3.78-3.684 4.035-6.313l0.317-3.272c0.3-3.082-1.154-6.071-3.762-7.738"/>
</g>
<g transform="matrix(.026392 0 0 .026392 8.3465 8.3465)" fill="#fff" opacity=".75">
<path d="m523.95 400.2c-2.609-1.668-5.931-1.732-8.603-0.167l-206.25 120.85c-2.408 1.411-3.938 3.946-4.065 6.735l-0.145 3.186c-0.137 3.017 1.388 5.866 3.974 7.427 1.309 0.79 2.782 1.185 4.257 1.185 1.439 0 2.879-0.376 4.165-1.13l206.08-120.77c2.279-1.336 3.78-3.684 4.035-6.313l0.317-3.272c0.3-3.082-1.154-6.071-3.762-7.738"/>
</g>
</g>
</svg>
