<svg width="386" height="379" xmlns="http://www.w3.org/2000/svg" xmlns:xlink="http://www.w3.org/1999/xlink" xml:space="preserve" overflow="hidden"><g transform="translate(17 17)"><path d="M344.002 172.003C344.002 266.996 266.996 344.002 172.003 344.002 77.0087 344.002 0.00180577 266.996 0.00180577 172.003 0.00180577 77.0087 77.0087 0.00180577 172.003 0.00180577 266.996 0.00180577 344.002 77.0087 344.002 172.003" stroke="#FFFFFF" stroke-width="34.3736" stroke-linecap="square" stroke-linejoin="bevel" stroke-miterlimit="10" fill="#3E94B6" fill-rule="evenodd"/><path d="M297.664 176.462C298.355 176.066 298.832 175.381 298.965 174.595 299.097 173.809 298.874 173.006 298.353 172.404L179.538 34.9246C178.714 33.9711 177.334 33.7253 176.231 34.3336L56.3804 100.487C55.6718 100.878 55.179 101.569 55.0415 102.367 54.9026 103.164 55.1321 103.981 55.6668 104.588L177.582 243.097C178.104 243.689 178.839 244.002 179.586 244.002 180.04 244.002 180.499 243.887 180.915 243.646L297.665 176.458" fill="#FFFFFF" fill-rule="evenodd"/><path d="M171.486 253.908C171.48 253.26 171.248 252.636 170.834 252.15L53.0976 113.92C52.3808 113.079 51.2352 112.782 50.2172 113.17 49.1989 113.56 48.5201 114.558 48.5093 115.677L48.0019 167.776C47.9947 168.445 48.2301 169.093 48.6605 169.595L167.407 308.09C167.914 308.681 168.634 309.002 169.37 309.002L169.406 309.002C170.841 308.987 172.002 307.782 172.002 306.298 172.002 306.206 171.997 306.117 171.988 306.027L171.482 253.91" fill="#FFFFFF" fill-rule="evenodd"/><path d="M296.936 185.704C295.52 184.801 293.717 184.767 292.266 185.613L180.292 250.977C178.985 251.741 178.154 253.112 178.085 254.62L178.007 256.343C177.932 257.975 178.76 259.516 180.164 260.36 180.875 260.788 181.675 261.002 182.475 261.002 183.256 261.002 184.038 260.798 184.736 260.39L296.617 195.069C297.855 194.347 298.67 193.077 298.808 191.655L298.981 189.886C299.144 188.219 298.354 186.601 296.938 185.7" fill="#FFFFFF" fill-rule="evenodd"/><path d="M296.936 209.667C295.52 208.812 293.717 208.779 292.266 209.581L180.292 271.506C178.985 272.229 178.154 273.527 178.085 274.957L178.007 276.59C177.932 278.136 178.76 279.596 180.164 280.395 180.875 280.8 181.675 281.002 182.475 281.002 183.256 281.002 184.038 280.81 184.736 280.424L296.617 218.539C297.855 217.855 298.67 216.651 298.808 215.305L298.981 213.628C299.144 212.049 298.354 210.518 296.938 209.663" fill="#FFFFFF" fill-rule="evenodd"/><path d="M296.936 230.694C295.52 229.804 293.717 229.769 292.266 230.605L180.292 295.109C178.985 295.863 178.154 297.216 178.085 298.704L178.007 300.405C177.932 302.015 178.76 303.536 180.164 304.37 180.875 304.791 181.675 305.002 182.475 305.002 183.256 305.002 184.038 304.801 184.736 304.399L296.617 239.936C297.855 239.224 298.67 237.97 298.808 236.567L298.981 234.821C299.144 233.176 298.354 231.581 296.938 230.691" fill="#FFFFFF" fill-rule="evenodd"/></g></svg>