<svg width="113" height="110" xmlns="http://www.w3.org/2000/svg" xmlns:xlink="http://www.w3.org/1999/xlink" xml:space="preserve" overflow="hidden"><g transform="translate(5 5)"><path d="M100 50.0002C100 77.6147 77.6147 100 50.0002 100 22.3857 100 0 77.6147 0 50.0002 0 22.3857 22.3857 0 50.0002 0 77.6147 0 100 22.3857 100 50.0002" stroke="#FFFFFF" stroke-width="9.99961" stroke-linecap="square" stroke-linejoin="bevel" stroke-miterlimit="10" fill="#FF8AB0" fill-rule="evenodd"/><path d="M86.5093 51.3041C86.7104 51.1891 86.849 50.99 86.8877 50.7617 86.9263 50.5335 86.8613 50.3001 86.7097 50.1252L52.1365 10.1907C51.8967 9.91378 51.4952 9.84238 51.1742 10.0191L16.2999 29.2352C16.0937 29.3487 15.9503 29.5493 15.9103 29.7811 15.8698 30.0127 15.9366 30.2499 16.0922 30.4263L51.5674 70.6601C51.7194 70.8321 51.9332 70.923 52.1506 70.923 52.2827 70.923 52.4163 70.8895 52.5373 70.8195L86.5096 51.303" fill="#FFFFFF" fill-rule="evenodd"/><path d="M49.7924 73.8517C49.7907 73.6633 49.7234 73.4816 49.6031 73.3404L15.4217 33.1408C15.2136 32.8961 14.881 32.8098 14.5855 32.9228 14.2899 33.0362 14.0928 33.3263 14.0896 33.6518L13.9424 48.8031C13.9403 48.9977 14.0086 49.186 14.1335 49.332L48.6083 89.6087C48.7555 89.7806 48.9643 89.8739 49.1781 89.8739L49.1887 89.8739C49.6052 89.8695 49.9422 89.5191 49.9422 89.0875 49.9422 89.0608 49.9407 89.0348 49.9383 89.0088L49.7914 73.8524" fill="#FFFFFF" fill-rule="evenodd"/><path d="M86.2585 54.0692C85.8487 53.8077 85.3272 53.7979 84.9075 54.0429L52.5182 72.9641C52.1402 73.1852 51.8998 73.5821 51.8797 74.0187L51.8571 74.5175C51.8355 74.9898 52.0751 75.4359 52.4813 75.6803 52.6869 75.8041 52.9181 75.866 53.1497 75.866 53.3757 75.866 53.6018 75.807 53.8038 75.689L86.1661 56.7802C86.5241 56.5712 86.76 56.2034 86.7998 55.7919L86.8499 55.2796C86.897 54.7971 86.6687 54.3288 86.2589 54.0681" fill="#FFFFFF" fill-rule="evenodd"/><path d="M86.2585 61.0523C85.8487 60.8031 85.3272 60.7934 84.9075 61.0273L52.5182 79.0891C52.1402 79.3 51.8998 79.6786 51.8797 80.0957L51.8571 80.5719C51.8355 81.0227 52.0751 81.4485 52.4813 81.6818 52.6869 81.7999 52.9181 81.8587 53.1497 81.8587 53.3757 81.8587 53.6018 81.8027 53.8038 81.6901L86.1661 63.6402C86.5241 63.4407 86.76 63.0896 86.7998 62.6968L86.8499 62.2077C86.897 61.7472 86.6687 61.3005 86.2589 61.0513" fill="#FFFFFF" fill-rule="evenodd"/><path d="M86.2585 67.0412C85.8487 66.7801 85.3272 66.7699 84.9075 67.015L52.5182 85.9361C52.1402 86.1572 51.8998 86.5541 51.8797 86.9907L51.8571 87.4896C51.8355 87.9619 52.0751 88.4079 52.4813 88.6526 52.6869 88.7761 52.9181 88.838 53.1497 88.838 53.3757 88.838 53.6018 88.779 53.8038 88.661L86.1661 69.7522C86.5241 69.5432 86.76 69.1754 86.7998 68.7639L86.8499 68.2516C86.897 67.7691 86.6687 67.3012 86.2589 67.0401" fill="#FFFFFF" fill-rule="evenodd"/></g></svg>