<?xml version="1.0" encoding="UTF-8" standalone="no"?>
<svg
   width="32"
   height="32"
   version="1.1"
   viewBox="0 0 32 32"
   id="svg3"
   sodipodi:docname="laddstationer.svg"
   xml:space="preserve"
   inkscape:version="1.3 (0e150ed6c4, 2023-07-21)"
   xmlns:inkscape="http://www.inkscape.org/namespaces/inkscape"
   xmlns:sodipodi="http://sodipodi.sourceforge.net/DTD/sodipodi-0.dtd"
   xmlns="http://www.w3.org/2000/svg"
   xmlns:svg="http://www.w3.org/2000/svg"><defs
     id="defs3"><style
       id="style1">.cls-1{fill-rule:evenodd;}</style><style
       id="style1-4">.cls-1{fill-rule:evenodd;}</style></defs><sodipodi:namedview
     id="namedview3"
     pagecolor="#ffffff"
     bordercolor="#000000"
     borderopacity="0.25"
     inkscape:showpageshadow="2"
     inkscape:pageopacity="0.0"
     inkscape:pagecheckerboard="0"
     inkscape:deskcolor="#d1d1d1"
     inkscape:zoom="25.65625"
     inkscape:cx="16"
     inkscape:cy="15.980512"
     inkscape:window-width="1350"
     inkscape:window-height="1040"
     inkscape:window-x="2774"
     inkscape:window-y="33"
     inkscape:window-maximized="0"
     inkscape:current-layer="svg3" /><g
     transform="matrix(.059028 0 0 .059028 -1.1183 -1.1182)"
     fill="#2eb7ff"
     id="g1"
     style="fill:#155196;fill-opacity:1"><path
       d="m542.94 486.24c0 31.312-25.383 56.693-56.693 56.693h-392.49c-31.311 0-56.693-25.382-56.693-56.693v-392.48c0-31.311 25.382-56.693 56.693-56.693h392.48c31.311 0 56.693 25.382 56.693 56.693v392.48h1e-3"
       id="path1"
       style="fill:#155196;fill-opacity:1" /></g><g
     transform="matrix(.059028 0 0 .059028 -1.1183 -1.1182)"
     fill="none"
     stroke="#fff"
     stroke-width="36.25"
     id="g2"><path
       d="m542.94 486.24c0 31.312-25.383 56.693-56.693 56.693h-392.49c-31.311 0-56.693-25.382-56.693-56.693v-392.48c0-31.311 25.382-56.693 56.693-56.693h392.48c31.311 0 56.693 25.382 56.693 56.693v392.48h1e-3"
       id="path2" /></g><path
     class="cls-1"
     d="m 25.226222,15.725951 c 0.0604,0.828038 0.183142,1.661922 0.307836,2.489959 a 27.227847,27.227847 0 0 1 0.340956,3.006267 c 0.05261,1.315119 -0.103259,2.396439 -0.537738,3.160182 -0.483185,0.853367 -1.268361,1.309275 -2.425666,1.268361 v 0 c -1.381362,-0.02533 -2.230833,-0.800762 -2.614652,-2.232782 -0.247438,-0.921557 -0.284456,-2.143156 -0.136383,-3.6044 0.105213,-1.055992 0.264971,-1.732061 0.194831,-2.819228 -0.08768,-1.23329 -0.305886,-2.205503 -0.662429,-2.922487 a 2.2425225,2.2425225 0 0 0 -1.2216,-1.168995 v 11.676313 a 1.5937302,1.5937302 0 0 1 0.448114,0.319525 1.6385417,1.6385417 0 0 1 0.481236,1.168994 v 1.168997 a 0.53384115,0.53384115 0 0 1 -0.539686,0.5241 H 5.1721076 A 0.53384115,0.53384115 0 0 1 4.6382666,27.226915 V 26.05792 A 1.64049,1.64049 0 0 1 5.1195029,24.888924 1.6697148,1.6697148 0 0 1 5.4175967,24.666816 V 6.6487032 A 2.8328651,2.8328651 0 0 1 8.2543583,3.8197347 h 7.3607727 a 2.8503999,2.8503999 0 0 1 2.842608,2.8426067 v 5.1455266 c 2.213297,0.483185 2.805589,3.049131 2.947816,5.165011 0.09547,1.424225 -0.02922,1.402794 -0.183143,2.850401 -0.150021,1.389155 -0.124693,2.509443 0.09546,3.329687 0.247437,0.929351 0.77933,1.432018 1.60542,1.443709 h 0.0098 c 0.713088,0.02338 1.186532,-0.237696 1.465142,-0.730623 0.329267,-0.584497 0.444219,-1.470985 0.389666,-2.59322 a 27.229795,27.229795 0 0 0 -0.327338,-2.893262 c -0.128617,-0.865057 -0.259155,-1.735959 -0.319553,-2.643879 h -0.179247 l -0.01753,-1.145615 c -1.363835,-0.132486 -1.878193,-1.050148 -1.878193,-2.369163 v -0.607878 h -0.194832 a 0.32147368,0.32147368 0 0 1 -0.321474,-0.321473 v -0.368234 a 0.32147368,0.32147368 0 0 1 0.321474,-0.321474 h 0.952732 V 8.9165541 a 0.50461626,0.50461626 0 0 1 0.506564,-0.5065648 v 0 a 0.50656459,0.50656459 0 0 1 0.506564,0.5065648 v 1.6853009 h 1.49047 V 8.9165541 a 0.50656459,0.50656459 0 0 1 0.506565,-0.5065648 v 0 a 0.50656459,0.50656459 0 0 1 0.508513,0.5065648 v 1.6853009 h 0.974163 a 0.32147368,0.32147368 0 0 1 0.321473,0.321474 v 0.372131 a 0.32147368,0.32147368 0 0 1 -0.313681,0.317576 h -0.251333 v 0.672173 c 0,1.301481 -0.440322,2.076914 -1.704785,2.27954 v 1.157304 z m -12.364075,1.981447 h 1.342397 a 0.35264689,0.35264689 0 0 1 0.352647,0.352646 0.36044019,0.36044019 0 0 1 -0.0604,0.194833 l -3.197202,5.455311 a 0.35069856,0.35069856 0 0 1 -0.644896,-0.253283 l 0.471495,-3.345273 -1.5898338,0.02728 a 0.35069856,0.35069856 0 0 1 -0.3545946,-0.342905 0.33316364,0.33316364 0 0 1 0.048705,-0.185091 l 3.1426494,-5.455311 a 0.35264689,0.35264689 0 0 1 0.642947,0.229902 L 12.85435,17.707403 Z M 8.8973058,6.2629348 h 6.1995712 a 1.1689952,1.1689952 0 0 1 0.82609,0.3429052 c 0.01364,0.015586 0.02922,0.029225 0.04286,0.04676 a 1.1689952,1.1689952 0 0 1 0.303939,0.7793298 V 11.387031 A 1.1689952,1.1689952 0 0 1 15.10077,12.556025 H 8.8973077 A 1.1689952,1.1689952 0 0 1 8.0731662,12.21312 v 0 A 1.1689952,1.1689952 0 0 1 7.730259,11.387031 V 7.4299816 A 1.1689952,1.1689952 0 0 1 8.0731643,6.6038917 0.46954641,0.46954641 0 0 1 8.1199279,6.5629766 1.1689952,1.1689952 0 0 1 8.8992581,6.2629345 Z M 17.972605,25.541614 H 6.0527509 A 0.58449761,0.58449761 0 0 0 5.8754533,25.66241 0.568911,0.568911 0 0 0 5.7078972,26.065713 v 0.631258 H 18.323304 V 26.065713 A 0.58449761,0.58449761 0 0 0 18.155748,25.66241 0.58449761,0.58449761 0 0 0 17.972605,25.539664 Z"
     id="path1-6"
     style="stroke-width:0.194833;fill:#ffffff;fill-opacity:0.99607998" /></svg>
