<?xml version="1.0" encoding="UTF-8"?>
<svg width="32" height="32" version="1.2" viewBox="0 0 64 64" xmlns="http://www.w3.org/2000/svg" xmlns:cc="http://creativecommons.org/ns#">
<g transform="matrix(3.7743 0 0 3.7743 -28.388 -28.388)">
<g transform="matrix(.031279 0 0 .031279 6.9291 6.9291)" fill="#2eb7ff" fill-opacity="1">
<path d="m542.94 486.24c0 31.312-25.383 56.693-56.693 56.693h-392.49c-31.311 0-56.693-25.382-56.693-56.693v-392.48c0-31.311 25.382-56.693 56.693-56.693h392.48c31.311 0 56.693 25.382 56.693 56.693v392.48h1e-3"/>
</g>
<g transform="matrix(.031279 0 0 .031279 6.9291 6.9291)" fill="none" stroke="#fff" stroke-opacity="1" stroke-width="36.25">
<path d="m542.94 486.24c0 31.312-25.383 56.693-56.693 56.693h-392.49c-31.311 0-56.693-25.382-56.693-56.693v-392.48c0-31.311 25.382-56.693 56.693-56.693h392.48c31.311 0 56.693 25.382 56.693 56.693v392.48h1e-3"/>
</g>
<g transform="matrix(1.1565 0 0 1.1565 8.9297 -320.08)" fill="#fff" fill-opacity="1">
<path d="m3.9271 284.73-0.03063 3.29-1.9404 8.441h0.7349l1.9189-8.404-0.00153-3.302-0.68124-0.025"/>
</g>
<g transform="matrix(1.1565 0 0 1.1565 8.9297 -320.08)" fill="#fff" fill-opacity="1">
<path d="m7.647 284.7 0.0067 3.324 1.8781 8.439 0.739 2e-3 -1.9065-8.424 0.02244-3.333-0.73975-8e-3"/>
</g>
<g transform="matrix(1.1565 0 0 1.1565 8.9297 -320.08)" fill="#fff" fill-opacity="1">
<path d="m8.1855 285.53-4.2422 2.471 0.13281 0.23 4.2422-2.473-0.13281-0.228"/>
</g>
<g transform="matrix(1.1565 0 0 1.1565 8.9297 -320.08)" fill="#fff" fill-opacity="1">
<path d="m4.0352 285.53-0.13086 0.229 4.2852 2.472 0.13281-0.23-4.2872-2.471"/>
</g>
<g transform="matrix(1.1565 0 0 1.1565 8.9297 -320.08)" fill="#fff" fill-opacity="1">
<path d="m4.0265 287.75-0.0167 0.712h4.2461v-0.712h-4.2294"/>
</g>
<g transform="matrix(1.1565 0 0 1.1565 8.9297 -320.08)" fill="#fff" fill-opacity="1">
<path d="m8.2682 285.44-4.2832 3e-3 0.01865 0.622h4.2812l-0.01665-0.625"/>
</g>
<g transform="matrix(1.1565 0 0 1.1565 8.9297 -320.08)" fill="#fff" fill-opacity="1">
<path d="m4.3426 288.02-0.42947 0.532 5.6187 7.904 0.73897 2e-3 -5.9282-8.438"/>
</g>
<g transform="matrix(1.1565 0 0 1.1565 8.9297 -320.08)" fill="#fff" fill-opacity="1">
<path d="m7.9919 288.03-6.0359 8.432h0.7349l5.6733-7.839-0.3723-0.593"/>
</g>
</g>
</svg>
