<?xml version="1.0" encoding="UTF-8"?>
<svg width="32" height="32" version="1.2" viewBox="0 0 64 64" xmlns="http://www.w3.org/2000/svg" xmlns:cc="http://creativecommons.org/ns#">
<g transform="matrix(3.7743 0 0 3.7743 -28.388 -28.388)">
<g transform="matrix(.031279 0 0 .031279 6.9291 6.9291)" fill="#2eb7ff" fill-opacity="1">
<path d="m542.94 486.24c0 31.312-25.383 56.693-56.693 56.693h-392.49c-31.311 0-56.693-25.382-56.693-56.693v-392.48c0-31.311 25.382-56.693 56.693-56.693h392.48c31.311 0 56.693 25.382 56.693 56.693v392.48h1e-3"/>
</g>
<g transform="matrix(.031279 0 0 .031279 6.9291 6.9291)" fill="none" stroke="#fff" stroke-opacity="1" stroke-width="36.25">
<path d="m542.94 486.24c0 31.312-25.383 56.693-56.693 56.693h-392.49c-31.311 0-56.693-25.382-56.693-56.693v-392.48c0-31.311 25.382-56.693 56.693-56.693h392.48c31.311 0 56.693 25.382 56.693 56.693v392.48h1e-3"/>
</g>
<g transform="matrix(.016139 0 0 -.016139 14.992 17.007)" fill="#fff" fill-opacity="1">
<path d="m-164.05 437.42-11.526-1.231-10.206-1.32-9.767-1.672-8.535-2.552-8.006-2.991-8.095-3.784-8.535-4.751-8.887-5.015-8.534-6.423-8.095-6.335-7.655-6.511-7.215-6.687-6.071-6.863-5.543-6.423-4.663-6.775-5.896-10.207-4.663-9.854-4.751-9.767-3.344-9.766-1.319-4.664-1.32-4.663-1.232-3.431-0.792-3.432-0.88-2.112-0.88-1.671-0.88-1.76-0.351-1.672v-2.991l-0.44-2.992-0.44-4.223v-20.413l0.88-9.415 1.231-9.766 1.76-10.207 2.464-10.734 3.431-10.119 3.872-10.206 5.103-9.767 5.895-9.854 6.071-8.975 5.455-7.127 5.103-6.423 4.664-5.103 5.103-5.103 4.663-4.312 3.872-3.783 4.663-2.992 4.663-3.431 6.071-2.992 6.687-2.903 7.303-2.992 8.095-2.991 8.535-2.552 9.766-2.64 10.207-1.671 10.206-1.672 11.527-0.88 11.878-0.792 9.854-0.528 9.327-0.352 8.095-0.88 6.775-0.792 6.423-0.527 5.543-0.792 4.223-0.88 3.8718-1.232 3.3435-0.88 2.5516-1.232 2.1997-1.32 1.2318-1.319 0.4399-1.232v-101.71l-0.4399-0.5279-1.7597-0.3519-2.0237-0.352-2.9916-0.87985-4.3114-0.43993h-4.663l-6.423-0.43994h-6.775l-7.655-0.43993-14.43-0.79188-14.078-1.3198-14.078-2.5516-13.638-2.9916-13.55-3.8714-11.086-3.6954-10.207-4.7513-9.854-5.1032-9.767-5.5432-8.886-6.775-8.535-6.8629-6.863-6.3351-6.423-5.5432-5.015-5.5431-4.664-5.1033-3.431-4.6633-2.552-4.6633-2.111-4.3114-2.2-4.7513-2.112-5.8951-2.111-6.335-2.992-7.3029-2.992-8.0952-2.991-8.886-2.024-6.423-1.76-5.983-1.319-5.104-1.232-4.311-0.88-3.256-0.88-2.639-0.352-2.112v-0.88l0.352-1.671 0.528-2.112 0.352-3.432 0.44-3.431 0.44-4.663 0.792-5.544 0.44-5.455 0.44-4.751 0.44-4.223 0.439-3.432v-2.991l0.44-1.672v-2.992l0.44-2.991 1.232-3.784 0.792-4.311 1.32-2.992 1.32-3.783 2.111-3.872 2.992-4.663 2.991-5.103 3.344-5.983 3.871-6.335 6.423-9.415 6.775-8.535 8.095-8.446 8.535-8.095 8.887-7.303 8.094-5.895 9.415-5.103 8.887-4.752 9.854-4.223 10.559-3.783 10.734-2.992 10.998-2.552 11.087-2.199 10.646-0.792 10.207-0.44h10.206l9.415 0.88 10.998 2.023 11.086 2.2 9.7669 2.992 9.8545 3.343 9.3266 3.872 6.775 3.431 6.4231 3.432 5.1032 2.903 4.2234 2.992 3.8714 2.639 3.4315 2.464 2.1117 2.64 2.5516 2.991 3.3435 3.696 2.9915 4.311 4.3114 4.751 4.2234 5.455 4.2233 6.423 7.3029 8.887 5.1033 8.535 4.6633 8.535 3.8714 8.534 2.9036 8.095 1.7597 6.335 1.2318 7.215 1.3198 7.743 0.87987 8.887 0.79188 9.854 0.43994 10.647 0.43998 11.878v8.095l0.4399 7.214 0.3519 6.423 0.528 5.456 0.3519 5.191 0.4399 4.223 0.44 3.432 0.7919 2.5514 0.4399 2.0237 0.8799 0.8798 1.6717 0.44 1.6718 0.8798 3.0795 0.44h3.7834l4.7513 0.3519 5.0153 0.5279h13.726l7.5669 0.44h17.421l8.1828-0.44 7.2149-0.5279 5.8951-0.3519 5.6312-0.44 4.223-0.8798 3.872-0.7919 2.903-0.8799 1.672-0.8799 1.32-1.2318 0.88-1.7594 0.44-2.992 0.88-3.343 0.352-4.224 0.439-5.191v-30.179l0.44-9.415v-8.535l0.88-8.007 0.352-6.775 0.88-6.511 1.232-5.895 1.76-6.335 2.551-7.303 2.992-7.215 3.343-7.654 4.312-8.007 5.983-9.855 5.983-8.974 5.895-8.535 6.775-7.567 7.303-7.655 5.895-5.631 5.191-4.663 4.664-4.312 4.223-3.343 3.343-2.552 2.992-2.112 3.519-2.199 4.576-2.024 5.631-2.2 5.895-2.111 6.775-2.552 5.983-1.672 7.655-1.671 7.655-1.76 8.623-1.32 8.446-0.792 10.207-0.88 11.438-0.44h11.526l11.087 1.32 10.646 1.76 9.767 2.552 9.766 3.343 8.535 2.992 8.183 3.783 7.567 3.871 7.214 3.784 7.743 5.103 7.215 5.191 5.983 5.016 5.456 5.631 4.311 4.223 4.311 5.543 4.224 6.335 4.663 7.743 5.103 8.007 4.663 8.975 4.224 9.326 3.871 10.295 2.64 10.646 2.024 10.999 1.319 9.326 0.88 8.535 0.792 7.743 0.44 6.775v6.423l-0.44 5.455-0.792 4.311-0.528 3.784v3.431l-0.352 2.2v2.903l-0.44 1.672-0.879 2.112-0.88 2.991-1.144 3.432-1.32 4.311-1.76 5.016-2.111 5.543-4.224 9.8542-4.311 9.7666-5.895 9.7665-5.983 9.4146-7.655 9.3266-6.863 7.6549-6.335 6.8629-5.983 5.8951-6.335 5.5432-6.423 4.2234-6.775 4.3113-7.655 3.7835-8.535 3.8714-8.975 3.3435-10.206 2.6396-10.207 2.5516-13.198 2.5516-14.078 1.7597-13.11 1.5838-14.077 0.52792-7.655 0.43994-6.423 0.35194h-5.544l-5.103 0.43994-3.343 0.35194-2.992 0.52793-2.2 0.79188-0.791 0.43993-0.88 1.7597-0.88 2.4637-0.792 3.4314-0.88 3.4315-0.44 5.1033-0.352 5.5431-0.528 6.775-0.352 6.863-0.44 8.0948v17.421l-0.439 7.2149v6.775l-0.44 5.5432v8.9746l0.44 3.4319v2.551l0.439 3.784 0.792 2.551 0.88 2.64 1.32 1.672 2.024 1.231 1.759 0.44 2.552 0.44h3.871l4.664 0.44h18.741l8.007-0.44h26.484l7.215 0.44 6.775 0.88 5.983 0.352 4.663 0.88 7.303 1.76 7.655 2.903 8.535 2.992 8.534 3.783 9.239 4.752 10.206 5.015 8.975 6.423 8.535 6.863 8.095 7.655 7.215 8.094 5.543 7.215 5.103 6.863 4.223 5.895 4.312 5.984 2.991 5.895 3.344 5.191 2.199 5.543 2.552 6.335 2.112 6.863 1.671 8.095 1.76 9.327 1.672 9.766 1.32 11.878 0.792 11.087v11.086l-0.792 10.206-1.76 9.855-1.76 9.327-2.463 8.534-2.992 8.095-2.991 8.095-4.224 7.215-6.863 11.438-7.655 11.526-8.534 10.647-5.544 5.983-6.775 6.335-7.654 5.543-8.095 5.983-8.887 5.103-9.854 5.104-9.767 4.311-10.206 3.783-10.647 2.904-10.646 2.2-10.647 1.671-11.086 1.32-10.206 0.44-10.207-0.44-10.206-0.88-9.855-1.671-9.327-1.76-9.326-2.552-8.095-2.903-8.095-3.432-10.206-5.103-9.415-5.543-8.886-5.983-8.975-6.335-6.775-5.983-6.423-6.335-5.543-6.424-5.456-7.302-4.751-7.215-5.895-9.327-4.751-8.975-4.224-8.974-4.223-8.447-1.76-4.663-1.759-5.543-1.232-6.424-0.792-7.214-1.32-8.535-0.352-8.975-0.528-9.766v-19.621l-0.352-7.567v-7.215l-0.88-5.983v-5.192l-0.44-4.223-0.791-3.343-0.528-2.552-0.792-1.76-0.88-0.88-9.327-3.343-1.32-0.44-2.111-0.44-2.9918-0.352h-57.895l-5.9831 0.352h-5.0153l-4.3113 0.44-3.4315 0.44h-2.9916l-2.9035 0.44-2.6396 0.352-1.6718 0.528h-1.2318l-0.4399 0.352v21.292l0.4399 5.544v13.198l-0.4399 2.991-0.43998 4.224-0.43994 4.751-1.3198 5.983-0.79188 6.775-1.2318 7.655-0.87987 6.775-0.87986 5.983-0.87988 5.103-0.87986 4.223-0.35195 3.872-0.43994 2.903-0.35194 1.76-0.52792 1.76-0.35195 1.672-0.43993 2.111-0.87987 2.904-1.2318 3.519-1.7597 4.224-1.6718 5.015-2.9916 7.743-2.5516 7.215-3.4315 6.423-3.3435 5.983-2.6396 3.343-2.5516 3.432-3.7834 3.871-3.8714 4.576-4.6633 4.751-5.1033 5.103-5.8951 5.543-5.5432 4.664-4.3113 3.783-3.8715 3.872-2.9035 2.551-2.1117 2.552-1.6718 1.232-1.3198 0.967-0.4399 0.352-0.4399 0.44-1.3198 0.44-2.0237 0.792-2.6396 1.32-4.2234 1.672-4.6633 2.199-5.5432 2.024-7.2149 3.08-7.2154 2.111-8.534 2.2-8.535 1.672-9.767 0.792-10.206 0.879-11.966 0.352h-11.087m26.836-79.54 0.44-0.44 6.775-1.319 28.156-15.31 5.1034-5.015 17.861-30.268 2.1117-5.103 3.4315-24.285v-2.903l-5.9831-50.681-2.1997-5.631-2.0237-2.551-2.9915-2.024-2.5516-1.76-22.612-6.775-3.784-0.44h-2.551l-60.007 5.104-6.863 2.551-28.948 20.853-4.223 5.543-13.199 28.508-0.791 8.007 7.215 36.69 2.111 5.104 16.542 24.284 6.863 5.015 29.299 10.735 4.312 0.791 28.507 1.32m431.66-8.534 1.232-0.352 7.215-1.32 33.259-18.389 4.663-4.576 8.535-13.198 1.232-3.871 6.863-10.207 1.231-4.223 1.32-3.432v-29.387l-1.672-5.895-11.966-25.604-3.871-4.752-22.085-17.333-6.423-2.992-30.267-4.663h-2.024l-40.034-0.528-2.992 0.528-21.292 4.663-3.432 1.672-2.904 2.112-2.111 2.551-1.76 3.872-3.431 15.309-0.44 3.432 2.551 57.015 1.32 5.456 11.438 23.052 4.224 5.103 27.364 19.973 6.775 2.552 37.482 3.432m-272.85-215.39 77.428-1.672 4.6628-0.88 13.638-5.103 1.672-1.232 2.552-2.112 3.871-5.631 2.992-10.558 0.44-3.432 3.343-80.948-0.88-3.7834-0.88-3.4315-8.006-13.55-2.552-2.5516-2.992-2.1117-2.991-1.3198-3.432-0.87987-87.194-1.3198-6.3351 1.7597-9.4146 4.7513-2.9916 2.4636-2.1997 2.5516-1.6718 4.3114-2.1117 10.646-0.43993 2.4636v86.491l3.0795 8.447 8.8867 11.526 3.7834 2.992 3.8714 1.32 3.4315 0.44 0.4399 0.352m-174.13-209.41 62.558-3.7834 2.5516-0.8799 3.4315-1.3198 2.4636-2.1117 2.6396-2.9916 7.6549-13.11 0.7919-2.9916 0.8798-4.311-2.9035-57.104-0.8799-3.343-9.3266-27.628-3.5195-5.103-1.6717-2.2-32.379-20.853-5.895-2.112-28.948-3.783h-1.672l-5.103 1.232-30.707 12.758-5.104 2.991-15.749 16.542-2.552 4.751-9.414 25.516-0.792 5.544 0.792 12.758 0.528 2.199 4.663 20.853 2.112 4.664 16.189 22.524 5.895 5.1032 37.483 15.31 5.983 0.8799m435.01-3.7834 1.232-0.44 5.191-0.4399 32.819-12.846 1.584-1.2318 3.431-2.5516 16.19-18.301 2.639-3.872 8.887-22.084 0.792-5.983-2.112-31.5-2.903-7.215-19.269-25.076-3.784-3.431-19.533-12.846-4.751-1.672-20.853-3.784h-5.543l-24.637 5.104-3.871 1.232-26.396 14.957-2.464 2.464-2.639 2.991-5.896 11.527-2.991 2.639-1.76 2.904-2.111 4.223-3.784 19.181v57.016l1.584 6.863 6.071 9.4145 5.015 4.5753 5.631 2.1997 64.231 5.9831"/>
</g>
</g>
</svg>
