<?xml version="1.0" encoding="UTF-8"?>
<svg width="32" height="32" version="1.2" viewBox="0 0 32 32" xmlns="http://www.w3.org/2000/svg" xmlns:cc="http://creativecommons.org/ns#" xmlns:dc="http://purl.org/dc/elements/1.1/" xmlns:rdf="http://www.w3.org/1999/02/22-rdf-syntax-ns#">
<metadata>
<rdf:RDF>
<cc:Work rdf:about="">
<dc:format>image/svg+xml</dc:format>
<dc:type rdf:resource="http://purl.org/dc/dcmitype/StillImage"/>
<dc:title>Qt SVG Document</dc:title>
</cc:Work>
</rdf:RDF>
</metadata>
<title>Qt SVG Document</title>
<desc>Generated with Qt</desc>
<g transform="matrix(1.7104 0 0 1.7104 -11.367 -11.367)" font-size="6.6" font-weight="400" stroke-linecap="square" stroke-linejoin="bevel">
<g fill="#5f487e" stroke="#fff" stroke-linecap="square" stroke-linejoin="bevel" stroke-width="1.7008">
<path d="m24.504 16c0 4.6966-3.8073 8.5039-8.5039 8.5039s-8.5039-3.8073-8.5039-8.5039 3.8073-8.5039 8.5039-8.5039 8.5039 3.8073 8.5039 8.5039" fill-rule="evenodd"/>
</g>
<g transform="translate(16 14.016)" fill="#fff">
<path d="m5.8594-0.027344c0 0.82031-0.41407 1.4922-1.2422 2.0156-0.01953 0.13672-0.0293 0.26367-0.0293 0.38086 0 0.34766 0.10547 0.64063 0.31641 0.87891 0.02343 0.02734 0.24414 0.21484 0.66211 0.5625-0.69141 0.01562-1.2285-0.10742-1.6113-0.36914-0.28906-0.19532-0.52149-0.50391-0.69727-0.92578-0.27734 0.05468-0.55859 0.08203-0.84375 0.08203-0.3164 0-0.65039-0.05078-1.002-0.15235-0.13672-0.50781-0.42774-0.9707-0.87305-1.3887-0.47656-0.44141-0.98242-0.68164-1.5176-0.7207-0.035154-0.15234-0.052734-0.27344-0.052734-0.36328 0-0.71484 0.33594-1.3066 1.0078-1.7754 0.66016-0.45704 1.4727-0.68555 2.4375-0.68555 0.96485 0 1.7774 0.22851 2.4375 0.68555 0.67188 0.46875 1.0078 1.0605 1.0078 1.7754m-0.98438 5.1621c0 0.49218-0.28516 0.92871-0.85547 1.3096s-1.2969 0.62988-2.1797 0.74707c-0.19531 0.55859-0.50781 0.94922-0.9375 1.1719-0.36328 0.19141-0.86914 0.28711-1.5176 0.28711 0.67969-0.28125 1.0195-0.75 1.0195-1.4062-0.86328-0.04687-1.6162-0.22461-2.2588-0.5332-0.64258-0.3086-1.0557-0.6836-1.2393-1.125 0.00781 0 0.12988 0.01367 0.36621 0.04101 0.23633 0.02735 0.45801 0.04102 0.66504 0.04102 0.75781 0 1.4238-0.17383 1.998-0.52149 0.86719-0.53125 1.3594-1.2363 1.4766-2.1152 0.87109 0 1.6211 0.14648 2.25 0.43945 0.80859 0.375 1.2129 0.92969 1.2129 1.6641m-3.6973-2.3203c0 0.72266-0.33691 1.3398-1.0107 1.8516-0.67383 0.51171-1.4873 0.76757-2.4404 0.76757-0.46094 0-0.90039-0.0664-1.3184-0.19921-0.1289 0.79296-0.57812 1.1894-1.3476 1.1894-0.26172 0-0.57227-0.10547-0.93164-0.31641 0.32421-0.03515 0.58789-0.17285 0.79101-0.41308 0.20313-0.24024 0.30469-0.5459 0.30469-0.917 0-0.05859-0.00195-0.11523-0.00586-0.16992-0.625-0.5039-0.9375-1.1016-0.9375-1.793 0-0.71875 0.33594-1.3223 1.0078-1.8105 0.66016-0.48047 1.4707-0.72071 2.4316-0.72071 0.95703 0 1.7725 0.24219 2.4463 0.72657 0.67383 0.48437 1.0107 1.0859 1.0107 1.8047" fill-rule="evenodd"/>
</g>
</g>
</svg>
