<?xml version="1.0" encoding="UTF-8"?>
<svg width="32" height="32" version="1.2" viewBox="0 0 64 64" xmlns="http://www.w3.org/2000/svg" xmlns:cc="http://creativecommons.org/ns#">
<path d="m3.7657 3.7657v56.467h56.467v-56.467zm5.4531 5.6423h45.211v11.303h-8.8498l10.661 18.463-26.101 15.07-19.361-33.533h-1.56zm2.5904 2.7085v5.1281l8.8817-5.1281zm16.419-3e-4 -13.545 7.8203 16.836 29.164 19.577-11.303-14.826-25.681zm12.391 3e-4 3.4666 6.0045h7.7544v-6.0045zm-15.105 5.5336 7.4748 12.951-1.5319 0.88511-7.4748-12.951zm-2.5532 1.4736 7.4796 12.951-1.5319 0.8851-7.4748-12.951zm-2.5483 1.4736 7.4748 12.951-1.5271 0.88024-7.4748-12.951zm22.857 8.5884 4.7076 8.1556-8.0535 4.6492-4.7076-8.1556zm-0.69058 2.5726-4.7951 2.7672 2.8304 4.8924 4.7903-2.7672z" fill="#fff"/>
<path d="m1.66e-7 0v64h64v-64zm3.7674 3.7674h56.465v56.465h-56.465z" fill="#5f487e"/>
<path d="m45.58 20.711h8.8498v-11.303h-45.211v11.303h1.56l19.361 33.533 26.101-15.07m-4.4004-21.053h-7.7549l-3.4666-6.0045h11.221v6.0045m-31.149-6.0045-8.8817 5.1281v-5.1281h8.8817m10.828 36.984-16.836-29.164 13.545-7.8203h8.0424l14.826 25.681-19.577 11.303" fill="#5f487e"/>
<path d="m18.884 21.477 7.4763 12.951 1.5288-0.8831-7.4763-12.951-1.5288 0.88279" fill="#5f487e"/>
<path d="m21.434 20.009 7.4763 12.951 1.5288-0.8831-7.4763-12.951-1.5288 0.8831" fill="#5f487e"/>
<path d="m23.982 18.535 7.4763 12.951 1.5324-0.88289-7.4783-12.951-1.5305 0.8831" fill="#5f487e"/>
<path d="m43.267 29.187-8.0541 4.6497 4.7085 8.1573 8.0543-4.6497zm-0.68919 2.5716 2.8265 4.8965-4.7937 2.7675-2.8265-4.8967z" fill="#5f487e"/>
</svg>
