<svg width="113" height="110" xmlns="http://www.w3.org/2000/svg" xmlns:xlink="http://www.w3.org/1999/xlink" xml:space="preserve" overflow="hidden"><g transform="translate(5 5)"><path d="M100 50.0002C100 77.6147 77.6147 100 50.0002 100 22.3857 100 0 77.6147 0 50.0002 0 22.3857 22.3857 0 50.0002 0 77.6147 0 100 22.3857 100 50.0002" stroke="#FFFFFF" stroke-width="9.99961" stroke-linecap="square" stroke-linejoin="bevel" stroke-miterlimit="10" fill="#3E94B6" fill-rule="evenodd"/><path d="M44.4562 17.8981C43.8776 17.8836 43.4213 18.4139 43.386 19.0267L41.7721 47.0877C41.7227 47.9514 42.268 48.8682 42.995 49.1439L79.1716 62.849C79.6421 63.027 80.4182 62.7227 80.4892 61.8528L82.766 33.9453C82.8158 33.0816 82.2704 32.1644 81.5432 31.8887L81.5407 31.8894 44.7882 17.9649C44.6749 17.9215 44.5632 17.9002 44.4562 17.8977M46.5593 22.2412C46.5967 22.2434 46.649 22.2553 46.726 22.2845L78.5479 34.3568C78.9848 34.5221 79.4097 35.2172 79.3832 35.7644 79.3822 35.7677 79.3836 35.7709 79.3839 35.7738L77.55 58.2327C77.5292 58.4893 77.4642 58.5106 77.4388 58.5265 77.4133 58.5423 77.3074 58.5741 77.213 58.538L45.855 46.6405C45.4156 46.4741 44.9864 45.7714 45.0182 45.2231L46.3145 22.6354C46.3262 22.43 46.4272 22.3015 46.4561 22.2777 46.4706 22.2658 46.4879 22.2463 46.5257 22.2416L46.5264 22.2416C46.536 22.2401 46.5466 22.2398 46.5593 22.2405" fill="#FFFFFF" fill-rule="evenodd"/><path d="M40.3976 48.8047C39.8535 48.8083 39.2974 48.9122 38.8901 49.1084L16.3795 59.9151C15.5476 60.3148 15.6336 61.4737 16.7228 61.877L53.8711 75.6281C54.6316 75.9062 55.8264 75.8492 56.5505 75.5004 56.5505 75.5004 78.443 64.9782 79.2684 64.602 80.093 64.2265 79.94 63.0139 79.1795 62.7354L79.1795 62.7354 41.5691 48.9807C41.2364 48.8591 40.8206 48.8014 40.3976 48.8047M39.456 60.9568C39.5573 60.9601 39.6546 60.9763 39.7347 61.0055L50.3201 64.8769C50.5343 64.9548 50.5773 65.2963 50.3452 65.402 50.1131 65.5081 43.9519 68.4694 43.9519 68.4694 43.7482 68.5675 43.4118 68.5834 43.1976 68.5051L32.7427 64.6352C32.4362 64.5216 32.4118 64.1955 32.6461 64.083L38.9815 61.0416C39.1087 60.9803 39.2876 60.9511 39.4563 60.9568" fill="#FFFFFF" fill-rule="evenodd"/></g></svg>