<?xml version="1.0" encoding="UTF-8"?>
<svg width="32" height="32" version="1.2" viewBox="0 0 32 32" xmlns="http://www.w3.org/2000/svg" xmlns:cc="http://creativecommons.org/ns#" xmlns:dc="http://purl.org/dc/elements/1.1/" xmlns:rdf="http://www.w3.org/1999/02/22-rdf-syntax-ns#">
<g transform="matrix(1.7104 0 0 1.7104 -11.367 -11.367)" font-size="6.6" font-weight="400" stroke-linecap="square" stroke-linejoin="bevel">
<g fill="#8eb63e" stroke="#fff" stroke-linecap="square" stroke-linejoin="bevel" stroke-width="1.7008">
<path d="m24.504 16c0 4.6966-3.8073 8.5039-8.5039 8.5039s-8.5039-3.8073-8.5039-8.5039 3.8073-8.5039 8.5039-8.5039 8.5039 3.8073 8.5039 8.5039" fill-rule="evenodd"/>
</g>
<g transform="matrix(.014545 0 0 .014545 8.3465 10.022)" fill="#fff">
<path d="m460.49 33.418c-6.912-0.1712-12.366 6.0313-12.787 13.197l-19.281 328.09c-0.594 10.098 5.923 20.821 14.611 24.043l432.22 160.24c5.621 2.084 14.896-1.474 15.744-11.646l27.203-326.3c0.594-10.098-5.923-20.821-14.611-24.043l-0.031 8e-3 -439.1-162.81c-1.358-0.5033-2.689-0.7534-3.969-0.7851m25.129 50.785c0.447 0.025 1.072 0.1648 1.992 0.5059l380.19 141.15c5.221 1.936 10.298 10.064 9.984 16.459-0.015 0.037 4e-3 0.076 6e-3 0.112l-21.91 262.59c-0.25 3-1.025 3.251-1.328 3.436-0.304 0.184-1.572 0.555-2.699 0.137l-374.65-139.11c-5.25-1.946-10.377-10.16-10-16.572l15.488-264.1c0.141-2.3975 1.346-3.9034 1.692-4.1816 0.173-0.1392 0.38-0.3658 0.832-0.4219h0.01c0.113-0.014 0.241-0.0181 0.39-0.0098"/>
</g>
<g transform="matrix(.014545 0 0 .014545 8.3465 10.022)" fill="#fff">
<path d="m419.01 404.6c-6.301 0.044-12.743 1.259-17.459 3.554l-260.7 126.44c-9.632 4.672-8.636 18.233 3.977 22.949l430.22 160.89c8.807 3.253 22.645 2.588 31.029-1.493 0 0 253.54-123.11 263.1-127.51 9.55-4.397 7.776-18.585-1.03-21.84h-2e-3l-435.57-160.93c-3.853-1.423-8.667-2.097-13.568-2.062m-10.905 142.18c1.173 0.041 2.301 0.229 3.231 0.573l122.59 45.291c2.478 0.915 2.979 4.908 0.291 6.146-2.688 1.239-74.045 35.887-74.045 35.887-2.359 1.148-6.254 1.336-8.732 0.42l-121.08-45.28c-3.55-1.327-3.831-5.144-1.12-6.459l73.37-35.585c1.474-0.718 3.548-1.06 5.501-0.993"/>
</g>
</g>
</svg>
